<svg xmlns="http://www.w3.org/2000/svg" width="28" height="28" viewBox="0 0 28 28">
  <metadata><?xpacket begin="﻿" id="W5M0MpCehiHzreSzNTczkc9d"?>
<x:xmpmeta xmlns:x="adobe:ns:meta/" x:xmptk="Adobe XMP Core 5.6-c138 79.159824, 2016/09/14-01:09:01        ">
   <rdf:RDF xmlns:rdf="http://www.w3.org/1999/02/22-rdf-syntax-ns#">
      <rdf:Description rdf:about=""/>
   </rdf:RDF>
</x:xmpmeta>
                                                                                                    
                                                                                                    
                                                                                                    
                                                                                                    
                                                                                                    
                                                                                                    
                                                                                                    
                                                                                                    
                                                                                                    
                                                                                                    
                                                                                                    
                                                                                                    
                                                                                                    
                                                                                                    
                                                                                                    
                                                                                                    
                                                                                                    
                                                                                                    
                                                                                                    
                                                                                                    
                           
<?xpacket end="w"?></metadata>
<defs>
    <style>
      .cls-1 {
        fill-rule: evenodd;
      }
    </style>
  </defs>
  <path id="leave" class="cls-1" d="M127.749,4297.5h8.75a1.721,1.721,0,0,0,1.43-.8l0.026,0.02,2.981-4.47h1.572l4.741,7.9,0.025-.02a1.724,1.724,0,0,0,1.475.87,1.71,1.71,0,0,0,1.475-2.64l0.026-.01L145,4289.6l-0.026.01a1.736,1.736,0,0,0-1.475-.86h-1.365l0.631-3.16,5.116,2.93,0.014-.03a1.677,1.677,0,0,0,.854.26,1.721,1.721,0,0,0,1.43-.8l0.026,0.02,3.5-5.25-0.026-.02a1.7,1.7,0,0,0,.32-0.95,1.728,1.728,0,0,0-3.179-.96l-0.027-.01-2.594,3.89-10.831-6.19-0.014.02a1.774,1.774,0,0,0-.855-0.25,1.736,1.736,0,0,0-1.549.97h-0.016l-3.5,7h0.016a1.722,1.722,0,0,0,1.549,2.53,1.727,1.727,0,0,0,1.55-.98l0.016,0.01,2.672-5.34,2.324,1.32-1.21,6.06-2.788,4.18h-7.814A1.75,1.75,0,1,0,127.749,4297.5Zm17.5-17.5a3.5,3.5,0,1,0-3.5-3.5A3.5,3.5,0,0,0,145.249,4280Z" transform="translate(-126 -4273)"/>
</svg>
