<svg xmlns="http://www.w3.org/2000/svg" width="11" height="11.97" viewBox="0 0 11 11.97">
  <defs>
    <style>
      .cls-1 {
        fill: #272727;
        fill-rule: evenodd;
      }
    </style>
  </defs>
  <path id="rocket" class="cls-1" d="M391.25,1191.5v-0.77a3.4,3.4,0,0,1-.688.75v0.4L388.5,1193l-2.063-1.12v-0.4a3.376,3.376,0,0,1-.687-0.75v0.77L383,1193l1.375-4.49,0.483-.35,0.2,0.22v-2.09h0v-0.03a0.117,0.117,0,0,0,0-.02c0-.05,0-0.1.007-0.14s-0.009-.07-0.009-0.1c0-2.29,3.173-4.88,3.173-4.88a0.418,0.418,0,0,1,.529,0c0.264,0.21,3.173,2.59,3.173,4.88,0,0.03-.006.06-0.009,0.1s0,0.09.007,0.14a0.117,0.117,0,0,1,0,.02v2.12l0.2-.22,0.484,0.35L394,1193Zm-2.75-7.48a1.5,1.5,0,1,1-1.375,1.49A1.438,1.438,0,0,1,388.5,1184.02Z" transform="translate(-383 -1181.03)"/>
</svg>
