<svg xmlns="http://www.w3.org/2000/svg" width="12" height="12" viewBox="0 0 12 12">

<defs>
    <style>
      .cls-1 {
        fill: #272727;
        fill-rule: evenodd;
      }
    </style>
  </defs>
  <path id="comment" class="cls-1" d="M434.5,1190h-3.44l-2.78,2.78h0a0.773,0.773,0,0,1-.53.22,0.753,0.753,0,0,1-.75-0.75V1190h-1.5a1.5,1.5,0,0,1-1.5-1.5v-6a1.5,1.5,0,0,1,1.5-1.5h9a1.5,1.5,0,0,1,1.5,1.5v6A1.5,1.5,0,0,1,434.5,1190Zm0-6.75a0.746,0.746,0,0,0-.75-0.75h-7.5a0.746,0.746,0,0,0-.75.75v4.5a0.753,0.753,0,0,0,.75.75h1.5a0.746,0.746,0,0,1,.75.75v1.19l1.719-1.72h0a0.733,0.733,0,0,1,.531-0.22h3a0.753,0.753,0,0,0,.75-0.75v-4.5Z" transform="translate(-424 -1181)"/>
</svg>
