<svg xmlns="http://www.w3.org/2000/svg" width="16" height="16" viewBox="0 0 16 16">
  <metadata><?xpacket begin="﻿" id="W5M0MpCehiHzreSzNTczkc9d"?>
<x:xmpmeta xmlns:x="adobe:ns:meta/" x:xmptk="Adobe XMP Core 5.6-c138 79.159824, 2016/09/14-01:09:01        ">
   <rdf:RDF xmlns:rdf="http://www.w3.org/1999/02/22-rdf-syntax-ns#">
      <rdf:Description rdf:about=""/>
   </rdf:RDF>
</x:xmpmeta>
                                                                                                    
                                                                                                    
                                                                                                    
                                                                                                    
                                                                                                    
                                                                                                    
                                                                                                    
                                                                                                    
                                                                                                    
                                                                                                    
                                                                                                    
                                                                                                    
                                                                                                    
                                                                                                    
                                                                                                    
                                                                                                    
                                                                                                    
                                                                                                    
                                                                                                    
                                                                                                    
                           
<?xpacket end="w"?></metadata>
<defs>
    <style>
      .cls-1 {
        fill: #fff;
        fill-rule: evenodd;
      }
    </style>
  </defs>
  <path id="icon" class="cls-1" d="M305,4290a8,8,0,1,0,8,8A8,8,0,0,0,305,4290Zm4.9,4.15a6.2,6.2,0,0,1,1.331,3.56,11.807,11.807,0,0,0-2.552-.29h-0.006a10.359,10.359,0,0,0-1.808.16c-0.138-.34-0.277-0.66-0.418-0.97A9.782,9.782,0,0,0,309.9,4294.15Zm-4.9-2.39a6.181,6.181,0,0,1,3.892,1.37,8.082,8.082,0,0,1-3.065,2.19,21.569,21.569,0,0,0-2.154-3.41A5.824,5.824,0,0,1,305,4291.76Zm-2.757.65a19.267,19.267,0,0,1,2.227,3.39,18.143,18.143,0,0,1-4.93.7h-0.1c-0.193,0-.359-0.01-0.5-0.01A6.262,6.262,0,0,1,302.243,4292.41Zm-3.486,5.59c0-.03,0-0.06,0-0.09,0.178,0.01.407,0.01,0.682,0.01h0a19.706,19.706,0,0,0,5.665-.81c0.122,0.26.241,0.54,0.36,0.82a9.889,9.889,0,0,0-3.514,2.08,10.168,10.168,0,0,0-1.722,2.01A6.226,6.226,0,0,1,298.757,4298Zm6.243,6.24a6.208,6.208,0,0,1-3.709-1.23,9.155,9.155,0,0,1,1.448-1.78,8.463,8.463,0,0,1,3.244-1.96,30.7,30.7,0,0,1,1.232,4.56A6.049,6.049,0,0,1,305,4304.24Zm3.533-1.11a32.05,32.05,0,0,0-1.153-4.19,8.751,8.751,0,0,1,1.281-.09h0.018a11.166,11.166,0,0,1,2.45.29A6.239,6.239,0,0,1,308.533,4303.13Z" transform="translate(-297 -4290)"/>
</svg>
