<svg xmlns="http://www.w3.org/2000/svg" width="16" height="16" viewBox="0 0 16 16">
  <metadata><?xpacket begin="﻿" id="W5M0MpCehiHzreSzNTczkc9d"?>
<x:xmpmeta xmlns:x="adobe:ns:meta/" x:xmptk="Adobe XMP Core 5.6-c138 79.159824, 2016/09/14-01:09:01        ">
   <rdf:RDF xmlns:rdf="http://www.w3.org/1999/02/22-rdf-syntax-ns#">
      <rdf:Description rdf:about=""/>
   </rdf:RDF>
</x:xmpmeta>
                                                                                                    
                                                                                                    
                                                                                                    
                                                                                                    
                                                                                                    
                                                                                                    
                                                                                                    
                                                                                                    
                                                                                                    
                                                                                                    
                                                                                                    
                                                                                                    
                                                                                                    
                                                                                                    
                                                                                                    
                                                                                                    
                                                                                                    
                                                                                                    
                                                                                                    
                                                                                                    
                           
<?xpacket end="w"?></metadata>
<defs>
    <style>
      .cls-1 {
        fill: #fff;
        fill-rule: evenodd;
      }
    </style>
  </defs>
  <path id="icon" class="cls-1" d="M355.52,4299.22c-1.633-1.16-2.243-1.71-1.2-2.63s1.872-1.67,1.872-3.38a3.208,3.208,0,0,0-1.415-2.59,3.08,3.08,0,0,0,1.567-.16,5.336,5.336,0,0,0,.783-0.5h-5.2c-1.044,0-3.939,1.18-3.939,3.95s3,3.36,4.094,3.32a1.257,1.257,0,0,0,.239,1.77c0.327,0.35.261,0.46-.13,0.46s-5.227.05-5.227,3.52,6.423,3.71,8.535,1.84A3.48,3.48,0,0,0,355.52,4299.22Zm-3.092-2.68c-2.592,0-3.767-6.05-.719-6.05C354.082,4290.4,355.868,4296.54,352.428,4296.54Zm-0.307,8.48c-2.154,0-3.308-1.08-3.308-2.68s1.568-2.39,4.508-2.39c0.8,0.61,2.22,1.36,2.22,2.85S354.273,4305.02,352.121,4305.02Zm8.894-15.02v1.97h1.959v1.02h-1.959v1.97H360v-1.97h-1.993v-1.02H360V4290h1.017Z" transform="translate(-346.969 -4289.97)"/>
</svg>
