<svg xmlns="http://www.w3.org/2000/svg" width="22" height="15.32" viewBox="0 0 22 15.32">
  <metadata><?xpacket begin="﻿" id="W5M0MpCehiHzreSzNTczkc9d"?>
<x:xmpmeta xmlns:x="adobe:ns:meta/" x:xmptk="Adobe XMP Core 5.6-c138 79.159824, 2016/09/14-01:09:01        ">
   <rdf:RDF xmlns:rdf="http://www.w3.org/1999/02/22-rdf-syntax-ns#">
      <rdf:Description rdf:about=""/>
   </rdf:RDF>
</x:xmpmeta>
                                                                                                    
                                                                                                    
                                                                                                    
                                                                                                    
                                                                                                    
                                                                                                    
                                                                                                    
                                                                                                    
                                                                                                    
                                                                                                    
                                                                                                    
                                                                                                    
                                                                                                    
                                                                                                    
                                                                                                    
                                                                                                    
                                                                                                    
                                                                                                    
                                                                                                    
                                                                                                    
                           
<?xpacket end="w"?></metadata>
<defs>
    <style>
      .cls-1 {
        fill: #fff;
        fill-rule: evenodd;
      }
    </style>
  </defs>
  <path id="twitter" class="cls-1" d="M211.6,4293.37a0.169,0.169,0,0,1-.041-0.04,4,4,0,0,0-2.9-1.04l-0.034-.07a0.02,0.02,0,0,1,.02-0.01,3.554,3.554,0,0,0,1.783-.69,0.234,0.234,0,0,0-.233-0.34,5.8,5.8,0,0,0-1.392.32c0.528-.32.733-0.55,0.617-0.66a2.764,2.764,0,0,0-1.673.77,0.86,0.86,0,0,0,.247-0.59,5.134,5.134,0,0,0-.74.6,10.8,10.8,0,0,0-1.077,1.31l-0.014.03a11.45,11.45,0,0,0-1.494,3.31l-0.11.08-0.02.02a5.607,5.607,0,0,0-1.542-1.28,19.09,19.09,0,0,0-2.537-1.28,22.779,22.779,0,0,0-3.229-1.29,3.06,3.06,0,0,0,1.776,2.76v0.02a3.8,3.8,0,0,0-1.214.17c0.075,1.08.878,1.82,2.4,2.23l-0.007.02a1.8,1.8,0,0,0-1.473.58,2.673,2.673,0,0,0,2.667,1.34,1.771,1.771,0,0,0-.583.41,0.819,0.819,0,0,0-.233.82,1.464,1.464,0,0,0,1.494.66h0l0.041,0.05c-0.007.01-.013,0.01-0.02,0.02a5.675,5.675,0,0,1-4.546,1.67l-0.027.02a5.863,5.863,0,0,1-3.5-1.49,10.784,10.784,0,0,0,5,3.76,12.477,12.477,0,0,0,7.109.16h0.041a11.3,11.3,0,0,0,5.848-3.89,7.6,7.6,0,0,0,1.392-2.94,2.926,2.926,0,0,0,2.6-.99l-0.013-.02a5.644,5.644,0,0,1-2.338-.13v-0.13h0.007c1.268-.13,2.015-0.52,2.255-1.17a3.694,3.694,0,0,1-2.619.03A5.282,5.282,0,0,0,211.6,4293.37Z" transform="translate(-194 -4290.84)"/>
</svg>
